<svg xmlns="http://www.w3.org/2000/svg" viewBox="0 0 24 24" class="size-6">
    <defs>
        <linearGradient id="grad1" x1="0%" y1="0%" x2="100%" y2="100%">
            <stop offset="0%" style="stop-color:#ff7e5f;stop-opacity:1" />
            <stop offset="100%" style="stop-color:#feb47b;stop-opacity:1" />
        </linearGradient>
    </defs>
    <path fill="url(#grad1)" fill-rule="evenodd" d="M12 1.5a5.25 5.25 0 0 0-5.25 5.25v3a3 3 0 0 0-3 3v6.75a3 3 0 0 0 3 3h10.5a3 3 0 0 0 3-3v-6.75a3 3 0 0 0-3-3v-3c0-2.9-2.35-5.25-5.25-5.25Zm3.75 8.25v-3a3.75 3.75 0 1 0-7.5 0v3h7.5Z" clip-rule="evenodd" />
</svg>
